<!DOCTYPE svg PUBLIC "-//W3C//DTD SVG 1.1//EN" "http://www.w3.org/Graphics/SVG/1.1/DTD/svg11.dtd">
<!-- Uploaded to: SVG Repo, www.svgrepo.com, Transformed by: SVG Repo Mixer Tools -->
<svg fill="#ffbd39" height="800px" width="800px" version="1.1" id="Layer_1" xmlns="http://www.w3.org/2000/svg" xmlns:xlink="http://www.w3.org/1999/xlink" viewBox="0 0 303.795 303.795" xml:space="preserve">
<g id="SVGRepo_bgCarrier" stroke-width="0"/>
<g id="SVGRepo_tracerCarrier" stroke-linecap="round" stroke-linejoin="round"/>
<g id="SVGRepo_iconCarrier"> <g> <g> <g> <path d="M296.892,96.191c-1.368-26.32-12.92-50.82-32.52-68.984c-19.6-18.16-44.924-27.792-71.26-27.18 c-26.388,0.632-50.664,11.496-68.352,30.592c-17.696,19.092-26.676,44.124-25.3,70.484c1.188,22.712,9.984,44.04,24.956,61.136 l-11.66,12.58c-0.136,0.144-0.208,0.32-0.296,0.488c-0.876-0.116-1.764-0.196-2.68-0.168c-4.112,0.156-7.904,1.896-10.68,4.892 l-77.96,84.144c-0.004,0.004-0.008,0.004-0.016,0.008c-0.004,0.004-0.004,0.008-0.008,0.012l-10.272,11.088 c-2.78,2.992-4.224,6.908-4.068,11.016c0.156,4.108,1.896,7.9,4.892,10.676l2.948,2.736v0.004 c2.952,2.732,6.696,4.08,10.428,4.08c4.128,0,8.248-1.652,11.268-4.908l88.252-95.252c2.78-2.992,4.22-6.908,4.068-11.016 c-0.036-0.912-0.176-1.804-0.364-2.68c0.156-0.1,0.324-0.18,0.456-0.32l11.664-12.584c17.536,13.14,38.552,20.264,60.42,20.264 c0.812,0,1.62-0.008,2.432-0.032c26.388-0.632,50.66-11.496,68.352-30.588C289.284,147.583,298.272,122.547,296.892,96.191z M33.024,295.839c-4.08,4.396-10.96,4.652-15.352,0.584l-2.952-2.732c-2.116-1.964-3.344-4.648-3.456-7.556 c-0.112-2.912,0.908-5.676,2.872-7.796l8.76-9.452l18.888,17.496L33.024,295.839z M121.276,200.583l-76.44,82.504l-18.888-17.496 l76.448-82.508c1.96-2.116,4.64-3.344,7.552-3.452c2.924-0.116,5.68,0.912,7.796,2.872l2.948,2.732 c2.12,1.964,3.344,4.648,3.456,7.556C124.26,195.699,123.24,198.467,121.276,200.583z M126.476,185.443 c-0.748-1.272-1.62-2.472-2.732-3.504l-2.948-2.732c-1.116-1.032-2.376-1.812-3.7-2.46l10.404-11.228 c1.472,1.54,2.908,3.108,4.488,4.572c1.576,1.46,3.244,2.78,4.892,4.132L126.476,185.443z M266.932,162.359 c-16.512,17.82-39.188,27.964-63.84,28.556c-21.676,0.5-42.644-6.432-59.88-19.68c-0.076-0.1-0.124-0.216-0.22-0.304 c-0.152-0.14-0.336-0.22-0.512-0.312c-2.108-1.652-4.184-3.356-6.168-5.196c-1.984-1.836-3.836-3.772-5.64-5.744 c-0.104-0.176-0.204-0.352-0.356-0.496c-0.1-0.088-0.22-0.128-0.324-0.196c-14.524-16.176-23.044-36.528-24.176-58.212 c-1.284-24.628,7.1-48.004,23.612-65.828c16.512-17.824,39.184-27.964,63.84-28.556c0.756-0.016,1.516-0.024,2.272-0.024 c23.868,0,46.7,9.012,64.512,25.516c18.376,17.028,29.204,39.984,30.496,64.648C291.836,121.151,283.444,144.535,266.932,162.359 z"/> <path d="M196.62,176.943c-18.852-0.908-36.964-8.568-51-21.576c-27.316-25.316-33.9-66.352-15.664-97.58 c0.62-1.06,0.26-2.424-0.804-3.044c-1.052-0.62-2.424-0.268-3.044,0.8c-19.28,33.012-12.344,76.368,16.488,103.088 c14.804,13.716,33.916,21.796,53.816,22.76c0.032,0,0.068,0,0.104,0c1.184,0,2.164-0.924,2.224-2.12 C198.8,178.047,197.852,177.003,196.62,176.943z"/> <path d="M253.756,38.667c-28.08-26.024-69.712-30.324-101.248-10.444c-1.036,0.656-1.352,2.028-0.696,3.072 c0.656,1.044,2.04,1.344,3.072,0.696c29.82-18.804,69.232-14.716,95.848,9.94c32.196,29.836,34.816,79.548,5.836,110.824 c-0.832,0.9-0.78,2.312,0.124,3.148c0.428,0.396,0.968,0.592,1.512,0.592c0.596,0,1.196-0.236,1.632-0.712 C290.48,122.708,287.752,70.172,253.756,38.667z"/> <path d="M56.744,248.147c16.524-17.832,33.044-35.664,49.568-53.496c1.96-2.116-1.208-5.3-3.176-3.172 c-16.52,17.832-33.044,35.66-49.568,53.492C51.608,247.087,54.776,250.271,56.744,248.147z"/> <path d="M86.636,223.251c-12.712,13.716-25.416,27.432-38.128,41.152c-1.96,2.116,1.204,5.3,3.176,3.172 c12.708-13.716,25.416-27.432,38.128-41.148C91.772,224.307,88.604,221.127,86.636,223.251z"/> <path d="M107.168,201.095c-2.348,2.532-4.692,5.064-7.04,7.596c-1.96,2.116,1.208,5.3,3.176,3.172 c2.348-2.532,4.692-5.064,7.04-7.596C112.304,202.151,109.136,198.971,107.168,201.095z"/> <path d="M45.04,253.539c-1.856,2.004-3.716,4.008-5.572,6.012c-1.964,2.12,1.204,5.3,3.172,3.176 c1.856-2.004,3.716-4.012,5.572-6.012C50.176,254.599,47.008,251.415,45.04,253.539z"/> <path d="M230.724,107.995c7.156-4.092,14.312-8.18,21.468-12.276c2.508-1.432,0.248-5.312-2.268-3.876 c-7.156,4.092-14.312,8.184-21.468,12.276C225.952,105.555,228.208,109.435,230.724,107.995z"/> <path d="M213.124,112.887c-17.376,9.936-34.756,19.872-52.132,29.808c-2.508,1.436-0.248,5.316,2.268,3.876 c17.376-9.936,34.756-19.872,52.132-29.808C217.9,115.331,215.64,111.451,213.124,112.887z"/> <path d="M262.072,106.911c-20.444,11.688-40.888,23.38-61.332,35.068c-2.508,1.432-0.248,5.316,2.264,3.876 c20.444-11.688,40.888-23.38,61.332-35.068C266.844,109.355,264.588,105.475,262.072,106.911z"/> <path d="M175.408,161.639c5.112-2.924,10.224-5.844,15.336-8.768c2.504-1.436,0.244-5.316-2.268-3.876 c-5.108,2.924-10.224,5.844-15.332,8.768C170.636,159.195,172.896,163.079,175.408,161.639z"/> </g> </g> </g> </g>
</svg>