<!DOCTYPE svg PUBLIC "-//W3C//DTD SVG 1.1//EN" "http://www.w3.org/Graphics/SVG/1.1/DTD/svg11.dtd">
<!-- Uploaded to: SVG Repo, www.svgrepo.com, Transformed by: SVG Repo Mixer Tools -->
<svg fill="#ffbd39" height="800px" width="800px" version="1.1" id="Layer_1" xmlns="http://www.w3.org/2000/svg" xmlns:xlink="http://www.w3.org/1999/xlink" viewBox="0 0 313.386 313.386" xml:space="preserve">
<g id="SVGRepo_bgCarrier" stroke-width="0"/>
<g id="SVGRepo_tracerCarrier" stroke-linecap="round" stroke-linejoin="round"/>
<g id="SVGRepo_iconCarrier"> <g> <g> <g> <path d="M288.275,201.705c-1.084-1.752-3.068-2.844-5.176-2.844h-31.012v-2.748c0-3.224-2.708-5.848-6.032-5.848h-27.8 c21.752-37.216,47.94-94.032,38.816-105.664c-6.668-8.508-55.188-35.58-102.94-36.092 c-48.164-0.624-95.368,25.464-100.428,36.672c-5.828,12.892,15.66,63.72,39.548,105.084h-28.5c-3.324,0-6.032,2.624-6.032,5.848 v2.748H32.323c-2.108,0-4.092,1.092-5.18,2.852c-1.128,1.836-1.132,4.12-0.016,5.96l14.68,24.204l-14.68,24.2 c-1.124,1.84-1.116,4.124,0.02,5.968c1.084,1.756,3.068,2.844,5.176,2.844h48.268c1.292,0,2.524-0.392,3.556-1.124l18.836-13.304 c0.668-0.472,1.048-1.176,1.152-1.928h31.584c0.02,0.02,0.028,0.052,0.052,0.076c7.396,6.972,13.316,9.944,19.788,9.944 c5.548,0,11.916-3.304,19.412-10.02h36.316c0.1,0.752,0.484,1.46,1.152,1.928l18.836,13.304c1.044,0.736,2.272,1.124,3.556,1.124 h48.268c2.108,0,4.092-1.092,5.18-2.852c1.124-1.832,1.136-4.112,0.02-5.96l-14.684-24.204l14.688-24.212 C289.419,205.829,289.407,203.549,288.275,201.705z M58.847,87.513c3.736-8.268,48.584-33.696,95.22-33.348 c46.148,0.496,92.992,26.828,98.552,33.928c5.148,6.568-11.952,53.484-40.932,102.176h-13.832 c16.772-30.104,40.776-84.292,33.068-94.444c-5.704-7.508-42.312-26.284-76.328-26.66c-0.348-0.004-0.696-0.004-1.052-0.004 c-33.812,0-69.44,17.9-73.528,27.24c-5.004,11.444,16.024,61.784,33.668,93.868H99.795 C71.967,142.821,54.935,96.165,58.847,87.513z M85.195,98.669c2.568-5.86,34.384-23.852,68.288-23.852c0.348,0,0.7,0,1.052,0.004 c34.212,0.376,68.012,19.32,71.888,24.424c3.74,4.928-10.784,48.544-35.06,91.028h-71.212v-0.004 C98.343,151.545,81.991,105.985,85.195,98.669z M80.587,259.241H32.319c-0.184,0-0.32-0.084-0.364-0.224l15.572-25.668 c0.548-0.9,0.548-2.032,0-2.932l-15.576-25.732c0.052-0.08,0.188-0.168,0.372-0.168h26.396v38.176 c0,3.224,2.708,5.844,6.032,5.844h31.128L80.587,259.241z M155.559,252.901c-3.572,0-7.08-1.356-11.136-4.368h21.548 C161.927,251.389,158.387,252.901,155.559,252.901z M64.747,242.881c-0.248,0-0.38-0.144-0.38-0.192v-46.572h0.004 c0-0.052,0.128-0.196,0.38-0.196h181.304c0.248,0,0.38,0.144,0.38,0.196v46.572c0,0.052-0.128,0.192-0.38,0.192H64.747z M267.895,230.413c-0.552,0.9-0.552,2.032,0,2.932l15.576,25.728c-0.052,0.08-0.188,0.164-0.372,0.164l-48.56-0.088 l-15.036-10.62h26.548c3.324,0,6.032-2.624,6.032-5.844v-38.176h31.016c0.184,0,0.32,0.088,0.372,0.228L267.895,230.413z"/> <path d="M311.815,110.057c-0.324-1.392-1.668-2.328-3.06-2.164c-1.276,0.144-31.436,3.684-46.504,23.64 c-15.136,20.04-8.756,48.204-8.476,49.388c0.04,0.184,0.136,0.34,0.212,0.504c0.052,0.108,0.076,0.224,0.14,0.328 c0.184,0.3,0.416,0.556,0.688,0.764c0.008,0.008,0.016,0.02,0.024,0.028c0.136,0.1,0.288,0.152,0.432,0.224 c0.12,0.06,0.224,0.14,0.348,0.18c0.296,0.1,0.6,0.152,0.904,0.152c0.104,0,0.208-0.004,0.316-0.016 c1.272-0.144,31.432-3.688,46.504-23.64C318.475,139.409,312.095,111.249,311.815,110.057z M298.827,156.041 c-9.484,12.56-26.328,18-35.748,20.156l29.692-39.928c0.932-1.252,0.672-3.024-0.58-3.956c-1.26-0.936-3.028-0.668-3.956,0.58 l-29.936,40.264c-0.924-9.024-1-25.688,8.46-38.216c11.176-14.8,32.612-19.732,40.024-21.032 C307.903,121.021,309.875,141.417,298.827,156.041z"/> <path d="M56.863,186.125c0.304,0,0.608-0.052,0.904-0.156c0.128-0.04,0.232-0.12,0.348-0.18c0.144-0.072,0.296-0.124,0.432-0.224 c0.008-0.008,0.016-0.02,0.024-0.028c0.272-0.208,0.504-0.464,0.688-0.764c0.064-0.104,0.088-0.22,0.14-0.328 c0.076-0.168,0.168-0.32,0.212-0.504c0.28-1.188,6.66-29.352-8.476-49.392c-15.064-19.956-45.228-23.496-46.504-23.64 c-1.424-0.176-2.74,0.772-3.06,2.164c-0.28,1.188-6.66,29.352,8.476,49.388c15.072,19.956,45.232,23.5,46.504,23.644 C56.655,186.121,56.759,186.125,56.863,186.125z M55.075,176.165l-29.928-40.248c-0.924-1.252-2.696-1.516-3.956-0.584 c-1.252,0.932-1.508,2.704-0.58,3.956l29.692,39.932c-9.42-2.16-26.26-7.596-35.748-20.16 c-11.048-14.628-9.076-35.02-7.956-42.128c7.408,1.3,28.848,6.228,40.024,21.028C56.059,150.457,55.991,167.129,55.075,176.165z"/> <path d="M103.587,118.961c-0.428-1.5-1.988-2.384-3.496-1.94c-1.5,0.428-2.368,1.996-1.94,3.492 c2.568,8.972,5.808,18.3,9.636,27.724c0.444,1.096,1.504,1.764,2.616,1.764c0.356,0,0.716-0.068,1.064-0.208 c1.444-0.588,2.144-2.236,1.552-3.684C109.271,136.869,106.095,127.737,103.587,118.961z"/> <path d="M99.599,114.909c1.524-0.34,2.484-1.848,2.144-3.372c-0.68-3.036-1.256-6.604-0.416-10.04 c0.372-1.516-0.556-3.048-2.076-3.416c-1.468-0.352-3.044,0.556-3.416,2.072c-1.116,4.568-0.428,8.94,0.392,12.616 c0.292,1.316,1.46,2.212,2.752,2.212C99.187,114.981,99.391,114.957,99.599,114.909z"/> <path d="M137.119,178.849h41.4c1.56,0,2.828-1.264,2.828-2.828v-13.312c-0.004-1.568-1.272-2.828-2.832-2.828h-9.316v-56.656 c0-0.912-0.44-1.764-1.18-2.296c-0.74-0.536-1.688-0.672-2.556-0.38l-28.592,9.672c-1.148,0.392-1.92,1.468-1.92,2.68v14.14 c0,0.892,0.42,1.732,1.136,2.264c0.716,0.536,1.644,0.7,2.492,0.448l8.74-2.572v32.704h-10.2c-1.564,0-2.828,1.264-2.828,2.824 v13.312C134.291,177.581,135.555,178.849,137.119,178.849z M139.939,165.529h10.2c1.56,0,2.828-1.264,2.828-2.828v-39.308 c0-0.892-0.42-1.732-1.132-2.264c-0.716-0.532-1.644-0.7-2.492-0.448l-8.74,2.572v-8.336l22.936-7.76v55.54 c0,1.56,1.264,2.828,2.828,2.828h9.316v7.664h-35.744V165.529z"/> </g> </g> </g> </g>
</svg>